<mxfile host="app.diagrams.net" modified="2024-04-13T16:09:17.526Z" agent="Mozilla/5.0 (Windows NT 10.0; Win64; x64) AppleWebKit/537.36 (KHTML, like Gecko) Chrome/123.0.0.0 Safari/537.36" etag="QU3sQgbFqRDMC-OPAqrz" version="24.2.5" type="github">
  <diagram name="Page-1" id="c4acf3e9-155e-7222-9cf6-157b1a14988f">
    <mxGraphModel dx="422" dy="616" grid="1" gridSize="10" guides="1" tooltips="1" connect="1" arrows="1" fold="1" page="1" pageScale="1" pageWidth="850" pageHeight="1100" background="none" math="0" shadow="0">
      <root>
        <mxCell id="0" />
        <mxCell id="1" parent="0" />
        <mxCell id="v89CsdgLvt-2hcjP8UX0-1" value="AAstronaut" style="swimlane;fontStyle=1;align=center;verticalAlign=top;childLayout=stackLayout;horizontal=1;startSize=26;horizontalStack=0;resizeParent=1;resizeParentMax=0;resizeLast=0;collapsible=1;marginBottom=0;whiteSpace=wrap;html=1;" vertex="1" parent="1">
          <mxGeometry x="300" y="50" width="310" height="190" as="geometry" />
        </mxCell>
        <mxCell id="v89CsdgLvt-2hcjP8UX0-2" value="&lt;div&gt;+ AstronautWeapon: UWeapon*&lt;/div&gt;&lt;div&gt;+AstronautCamera: UCameraComponent*&lt;/div&gt;&lt;div&gt;+ AstronautMappingContext: UInputMappingContext*&lt;/div&gt;&lt;div&gt;+ActionLook :UInputAction*&lt;/div&gt;" style="text;strokeColor=none;fillColor=none;align=left;verticalAlign=top;spacingLeft=4;spacingRight=4;overflow=hidden;rotatable=0;points=[[0,0.5],[1,0.5]];portConstraint=eastwest;whiteSpace=wrap;html=1;" vertex="1" parent="v89CsdgLvt-2hcjP8UX0-1">
          <mxGeometry y="26" width="310" height="74" as="geometry" />
        </mxCell>
        <mxCell id="v89CsdgLvt-2hcjP8UX0-3" value="" style="line;strokeWidth=1;fillColor=none;align=left;verticalAlign=middle;spacingTop=-1;spacingLeft=3;spacingRight=3;rotatable=0;labelPosition=right;points=[];portConstraint=eastwest;strokeColor=inherit;" vertex="1" parent="v89CsdgLvt-2hcjP8UX0-1">
          <mxGeometry y="100" width="310" height="8" as="geometry" />
        </mxCell>
        <mxCell id="v89CsdgLvt-2hcjP8UX0-4" value="+ AAstronaut()&lt;div&gt;&lt;i&gt;# Look(const Value: FInputAtionValue&amp;amp;): void&lt;/i&gt;&lt;/div&gt;&lt;div&gt;&lt;i&gt;# SetupPlayerInputComponent(PlayerInputComponent: UInputComponent*): void&lt;/i&gt;&lt;/div&gt;" style="text;strokeColor=none;fillColor=none;align=left;verticalAlign=top;spacingLeft=4;spacingRight=4;overflow=hidden;rotatable=0;points=[[0,0.5],[1,0.5]];portConstraint=eastwest;whiteSpace=wrap;html=1;" vertex="1" parent="v89CsdgLvt-2hcjP8UX0-1">
          <mxGeometry y="108" width="310" height="82" as="geometry" />
        </mxCell>
      </root>
    </mxGraphModel>
  </diagram>
</mxfile>
